<?xml version="1.0" encoding="UTF-8" standalone="no"?>
<svg
   xmlns:dc="http://purl.org/dc/elements/1.1/"
   xmlns:cc="http://creativecommons.org/ns#"
   xmlns:rdf="http://www.w3.org/1999/02/22-rdf-syntax-ns#"
   xmlns:svg="http://www.w3.org/2000/svg"
   xmlns="http://www.w3.org/2000/svg"
   version="1.1"
   id="svg4138"
   viewBox="0 0 500.00001 500.00001"
   height="500"
   width="500">
  <defs
     id="defs4140" />
  <metadata
     id="metadata4143">
    <rdf:RDF>
      <cc:Work
         rdf:about="">
        <dc:format>image/svg+xml</dc:format>
        <dc:type
           rdf:resource="http://purl.org/dc/dcmitype/StillImage" />
        <dc:title></dc:title>
      </cc:Work>
    </rdf:RDF>
  </metadata>
  <g
     transform="translate(0,-552.36216)"
     id="layer1">
    <path
       style="display:inline;fill:none;fill-rule:evenodd;stroke:#000000;stroke-width:0.1;stroke-linecap:butt;stroke-linejoin:miter;stroke-miterlimit:4;stroke-dasharray:none;stroke-opacity:1"
       d="M 74.96431,629.68692 C 33.8243,664.69347 57.48349,707.2146 57.48349,707.2146 c 0.0871,0.18737 0.21442,0.33288 0.36964,0.44401 -0.98632,5.55256 -1.7988,11.02726 -2.4319,16.41699 -3.65021,-44.18716 -43.68173,-53.05095 -43.68173,-53.05095 0,0 -11.29327,56.11133 42.59763,64.27284 -1.3922,18.69063 -0.68759,36.36232 1.74223,53.03068 C 37.54008,753.59532 0.64383,757.36488 0.64383,757.36488 c 0,0 6.73529,55.34278 58.55935,47.95276 4.12365,18.44266 10.34417,35.57223 18.06906,51.42142 -25.94905,-25.51861 -58.48272,-13.85208 -58.48272,-13.85211 0,0 19.87429,52.22964 68.53035,32.41928 6.49369,10.89602 13.65728,21.11851 21.26501,30.67029 -31.00146,-16.39735 -58.45793,2.60995 -58.45793,2.60995 0,0 32.00654,44.38422 73.26342,14.60039 10.90328,11.79883 22.32308,22.41612 33.67692,31.86484 -32.96944,-11.17034 -57.01545,11.65912 -57.01545,11.65912 0,0 38.83819,39.35868 75.20846,2.61446 15.72497,11.63582 30.66413,21.00512 43.12504,28.21132 -45.13031,-9.1493 -64.39905,28.4773 -64.39905,28.4773 0,0 50.70111,24.7558 72.48359,-23.8929 7.34029,4.1879 17.03259,9.0021 23.53011,12.4682 7.36007,-3.7457 17.41661,-9.0908 23.53013,-12.4682 21.78247,48.6487 72.48359,23.8929 72.48359,23.8929 0,0 -19.26875,-37.6266 -64.39905,-28.4773 12.46091,-7.2062 27.40005,-16.5755 43.12503,-28.21132 36.37026,36.74422 75.20848,-2.61446 75.20848,-2.61446 0,0 -24.04602,-22.82946 -57.01546,-11.65912 11.35384,-9.44872 22.77365,-20.06601 33.67691,-31.86484 41.25688,29.78383 73.26343,-14.60039 73.26343,-14.60039 0,0 -27.45646,-19.0073 -58.45792,-2.60995 7.60772,-9.55178 14.77132,-19.77427 21.265,-30.67029 48.65606,19.81036 68.53035,-32.41928 68.53035,-32.41928 0,2e-5 -32.53367,-11.6665 -58.48272,13.85211 7.72489,-15.84919 13.94542,-32.97876 18.06907,-51.42142 51.82406,7.39002 58.55934,-47.95276 58.55934,-47.95276 0,0 -36.89624,-3.76956 -55.43552,30.96329 2.42981,-16.66836 3.13441,-34.34005 1.74221,-53.03068 53.8909,-8.16151 42.59765,-64.27284 42.59765,-64.27284 0,0 -40.03153,8.86379 -43.68174,53.05095 -0.6331,-5.38973 -1.44558,-10.86443 -2.43189,-16.41699 0.15522,-0.11113 0.2825,-0.25664 0.36962,-0.44401 0,0 23.6592,-42.52113 -17.48081,-77.52768 -26.37638,41.48995 6.74839,76.45674 15.57632,78.152 0.53293,5.06261 0.97683,10.39068 1.26891,15.982 -13.39261,-41.89529 -61.8725,-32.13078 -61.8725,-32.13078 0,0 10.06625,45.48019 62.24213,43.91162 0.17396,15.22523 -0.84846,31.94578 -3.97578,49.64991 -4.92486,-37.02802 -48.1804,-42.29338 -48.1804,-42.29338 0,0 -4.66193,45.63943 44.16857,60.90337 -4.18592,16.38727 -10.28074,33.39925 -18.95484,50.66413 3.47857,-36.57952 -36.70157,-51.86318 -36.70157,-51.86318 0,0 -15.24316,42.49457 27.20614,69.08705 -6.66168,11.09139 -14.44002,22.23194 -23.52561,33.32081 15.24253,-35.59461 -21.15006,-61.84094 -21.15006,-61.84094 0,0 -26.307,37.99235 9.66447,75.05748 -10.81861,11.76666 -23.16464,23.43263 -37.28082,34.87147 20.87785,-32.93814 -11.23991,-64.63347 -11.23991,-64.63347 0,0 -31.56053,33.24181 -2.30568,75.14538 -6.5805,4.88287 -13.49912,9.71709 -20.77368,14.49222 13.26706,-23.39154 -0.5364,-51.6671 -0.5364,-51.6671 0,0 -40.03653,20.49969 -27.47661,68.73549 -6.80812,3.8539 -13.8503,7.6633 -21.18838,11.4134 -7.33808,-3.7501 -14.38026,-7.5595 -21.18838,-11.4134 12.55992,-48.2358 -27.47659,-68.73549 -27.47659,-68.73549 0,0 -13.80347,28.27556 -0.53642,51.6671 -7.27456,-4.77513 -14.19318,-9.60935 -20.77367,-14.49222 29.25485,-41.90357 -2.30568,-75.14538 -2.30568,-75.14538 0,0 -32.11776,31.69533 -11.23991,64.63347 -14.11618,-11.43884 -26.4622,-23.10481 -37.28082,-34.87147 35.97148,-37.06513 9.66448,-75.05748 9.66448,-75.05748 0,0 -36.39261,26.24633 -21.15007,61.84094 -9.08559,-11.08887 -16.86393,-22.22942 -23.5256,-33.32081 42.44929,-26.59248 27.20614,-69.08705 27.20614,-69.08705 0,0 -40.18014,15.28366 -36.70158,51.86318 -8.67408,-17.26488 -14.7689,-34.27686 -18.95482,-50.66413 48.83049,-15.26394 44.16856,-60.90337 44.16856,-60.90337 0,0 -43.25554,5.26536 -48.18039,42.29338 -3.12732,-17.70413 -4.14975,-34.42468 -3.97579,-49.64991 52.17587,1.56857 62.24212,-43.91162 62.24212,-43.91162 0,0 -48.47987,-9.76451 -61.87248,32.13078 0.29207,-5.59132 0.73596,-10.91939 1.2689,-15.982 8.82793,-1.69526 41.95269,-36.66205 15.57632,-78.152 z"
       id="path4739" />
  </g>
</svg>
